THE GOOD HEART 2009 DvD Screener H264 PsP

Format                           : MPEG-4
Format profile                   : Base Media / Version 2
Codec ID                         : mp42
File size                        : 317 MiB
Duration                         : 1h 38mn
Overall bit rate                 : 451 Kbps
Encoded date                     : UTC 2010-05-27 16:16:33
Tagged date                      : UTC 2010-05-27 16:16:56
Writing application              : mp4creator 1.6.1d

Video
ID                               : 1
Format                           : AVC
Format/Info                      : Advanced Video Codec
Format profile                   : Baseline@L1.3
Format settings, CABAC           : No
Format settings, ReFrames        : 1 frame
Codec ID                         : avc1
Codec ID/Info                    : Advanced Video Coding
Duration                         : 1h 38mn
Bit rate mode                    : Variable
Bit rate                         : 387 Kbps
Width                            : 480 pixels
Height                           : 272 pixels
Display aspect ratio             : 16:9
Original display aspect ratio    : 16:9
Frame rate mode                  : Constant
Frame rate                       : 24.000 fps
Resolution                       : 24 bits
Colorimetry                      : 4:2:0
Scan type                        : Progressive
Bits/(Pixel*Frame)               : 0.123
Stream size                      : 272 MiB (86%)
Encoded date                     : UTC 2010-05-27 16:16:33
Tagged date                      : UTC 2010-05-27 16:16:52

Audio
ID                               : 2
Format                           : AAC
Format/Info                      : Advanced Audio Codec
Format version                   : Version 4
Format profile                   : LC
Format settings, SBR             : Yes
Format settings, PS              : No
Codec ID                         : 40
Duration                         : 1h 38mn
Bit rate mode                    : Variable
Bit rate                         : 62.8 Kbps
Maximum bit rate                 : 154 Kbps
Channel(s)                       : 2 channels
Channel positions                : L R
Sampling rate                    : 48.0 KHz
Resolution                       : 16 bits
Stream size                      : 44.2 MiB (14%)
Encoded date                     : UTC 2010-05-27 16:16:52
Tagged date                      : UTC 2010-05-27 16:16:56

Brian Cox stars as Jacques, the curmudgeonly owner of a gritty New York dive bar that serves as home to a motley assortment of professional drinkers. Jacques is determinedly drinking and smoking himself to death when he meets Lucas (Paul Dano), a homeless young man who has already given up on life. In the hopes of keeping his legacy alive, Jacques deems Lucas is a fitting heir and takes him under his wing, schooling him in the male—centric laws of his alcoholic clubhouse
 
http://www.imdb.com/title/tt0808285/

PLEASE SEED AND ENJOY THANKS

To watch this file on you,re PC then i recomend using VLC media player or MEDIA PLAYER CLASSIC 

To burn to disc then i recomend using CONVERTX 2 DVD click link below
    
http://thepiratebay.org/torrent/5018839/VSO.Convert-X.to.DVD.3.5.3%28vice%29

screen shots    
 
http://img228.imageshack.us/img228/8659/goodhearth264vicemp4thu.jpg